<?xml version="1.0" standalone="no"?>
<!DOCTYPE svg PUBLIC "-//W3C//DTD SVG 20010904//EN"
 "http://www.w3.org/TR/2001/REC-SVG-20010904/DTD/svg10.dtd">
<svg version="1.0" xmlns="http://www.w3.org/2000/svg"
 width="160.000000pt" height="160.000000pt" viewBox="0 0 160.000000 160.000000"
 preserveAspectRatio="xMidYMid meet">
<metadata>
Created by potrace 1.14, written by Peter Selinger 2001-2017
</metadata>
<g transform="translate(0.000000,160.000000) scale(0.100000,-0.100000)"
fill="#000000" stroke="none">
<path d="M136 1268 c-69 -18 -80 -24 -91 -51 -28 -67 24 -157 113 -195 66 -29
79 -56 87 -182 10 -167 18 -206 58 -288 17 -35 50 -84 73 -109 36 -38 41 -49
34 -68 -5 -13 -16 -58 -25 -102 -17 -87 -29 -116 -63 -153 -42 -46 -14 -69 81
-65 34 2 47 -1 47 -12 0 -30 126 -49 200 -30 38 10 72 35 65 48 -3 4 -1 10 4
13 8 5 -2 61 -24 134 -7 20 -5 22 19 18 14 -2 29 -7 33 -9 14 -8 155 -19 230
-18 l73 1 -10 -26 c-6 -14 -10 -37 -10 -51 0 -14 -9 -41 -21 -59 l-21 -34 25
-9 c14 -5 75 -10 136 -10 94 1 114 4 135 20 16 12 40 19 70 19 64 0 146 19
153 36 10 26 -6 61 -50 110 -23 27 -49 61 -56 77 -22 42 -5 51 89 50 62 -2 80
1 80 12 0 7 -8 16 -17 20 -33 10 -95 76 -85 88 14 19 39 101 35 115 -7 19 -41
14 -48 -8 -9 -27 -21 -18 -29 22 -9 46 -77 156 -122 200 -22 20 -48 47 -59 59
-39 43 -177 120 -191 106 -3 -3 -17 1 -32 9 -39 20 -225 13 -269 -9 -18 -9
-40 -17 -49 -17 -18 0 -143 -43 -177 -62 -12 -6 -28 -18 -37 -26 -13 -14 -15
-13 -18 9 -5 33 -18 45 -36 30 -14 -11 -14 -28 -1 -86 3 -11 -2 -6 -10 10 -12
24 -14 67 -12 205 2 158 0 179 -18 215 -11 22 -32 45 -46 52 -48 23 -129 23
-213 1z"/>
</g>
</svg>
